# xmcd CD database file
#
# Track frame offsets:
#	150
#	15303
#	33478
#	49180
#	70105
#	94985
#	111748
#	131415
#	148103
#	176395
#
# Disc length: 2672 seconds
#
# Revision: 1
# Processed by: cddbd v1.5.2PL0 Copyright (c) Steve Scherf et al.
# Submitted via: CDex 1.51
#
DISCID=8a0a6e0a
DTITLE=Paul Butterfield's Better Days - It All Comes Back
DYEAR=1973
DGENRE=Blues
TTITLE0=Too Many Drivers
TTITLE1=It's Getting Harder To Survive
TTITLE2=If You Live
TTITLE3=Win Or Lose
TTITLE4=Small Town Talk
TTITLE5=Take Your Pleasure Where You Find It
TTITLE6=Poor Boy
TTITLE7=Louisiana Flood
TTITLE8=It All Comes Back
TTITLE9=Small Town Talk (Live)
EXTD=YEAR: 1973
EXTT0=
EXTT1=
EXTT2=
EXTT3=
EXTT4=
EXTT5=
EXTT6=
EXTT7=
EXTT8=
EXTT9=
PLAYORDER=
